<svg id="Layer_1" data-name="Layer 1" xmlns="http://www.w3.org/2000/svg" viewBox="0 0 504.54 581.57"><defs><style>.cls-1,.cls-9{fill:#bcdfd6;}.cls-1,.cls-2,.cls-3,.cls-4,.cls-5,.cls-6,.cls-7,.cls-8,.cls-9{stroke:#1d1d1b;stroke-width:5px;}.cls-1,.cls-10,.cls-2,.cls-3,.cls-4,.cls-5,.cls-6,.cls-7,.cls-8,.cls-9{stroke-miterlimit:10;}.cls-2{fill:#3cab46;}.cls-3{fill:#951b81;}.cls-4{fill:#36a9e1;}.cls-5{fill:#e94e1b;}.cls-6{fill:#f39200;}.cls-7{fill:#d60b52;}.cls-8{fill:#fff;}.cls-9{opacity:0.66;}.cls-10{fill:#1d1d1b;stroke:#fff;stroke-width:0.5px;}</style></defs><polygon class="cls-1" points="253.52 4.33 5 147.81 5 434.78 253.52 578.26 502.04 434.78 502.04 147.81 253.52 4.33"/><polygon class="cls-2" points="191.39 183.69 191.39 398.91 377.78 290.29 191.39 183.69"/><polygon class="cls-3" points="377.78 290.29 438.17 398.91 253.52 433.77 377.78 290.29"/><polygon class="cls-3" points="191.39 183.69 377.78 218.55 253.52 75.07 191.39 183.69"/><polygon class="cls-3" points="191.39 398.91 128.39 219.05 67.13 397.9 191.39 398.91"/><polygon class="cls-4" points="253.52 4.33 253.52 75.07 159.74 128.87 128.39 219.05 5 147.81 253.52 4.33"/><polygon class="cls-4" points="438.17 398.91 502.04 434.78 502.04 147.81 377.78 218.55 439.91 291.3 438.17 398.91"/><polygon class="cls-4" points="67.13 397.9 5 434.78 253.52 577.25 253.52 433.77 160.32 452.71 67.13 397.9"/><polygon class="cls-5" points="253.52 146.81 253.52 291.3 377.78 290.29 377.78 218.55 253.52 146.81"/><polygon class="cls-6" points="191.39 398.91 253.52 291.3 377.78 362.03 253.52 433.77 191.39 398.91"/><polygon class="cls-7" points="191.39 183.69 253.52 291.3 129.26 363.04 128.39 219.05 191.39 183.69"/><circle class="cls-8" cx="253.52" cy="291.29" r="5.85"/><polygon class="cls-9" points="253.52 4.33 5 147.81 5 434.78 253.52 578.26 502.04 434.78 502.04 147.81 253.52 4.33"/><path class="cls-10" d="M58.44,272.75c0,15-5.75,24.18-22.65,24.18-16.11,0-19.81-9-20.39-14.64H26.93c1.07,3.85,4,6.22,9.36,6.22,9.15,0,11.09-5.67,11.09-15.38v-2.75c-2.46,4.45-6.47,7.12-13.67,7.12-12,0-19.35-9.86-19.35-22.81,0-14.85,8.8-24.61,20.37-24.61,8.33,0,11.82,3.92,12.65,6.41.09-1.55.37-4.48.46-5.32H58.56c-.06,3.68-.12,9-.12,13.45ZM26,254.19c0,8.66,4.4,14.06,10.77,14.06,8.57,0,10.94-5.83,10.94-14.54s-1.85-14.44-10.67-14.44C30.42,239.27,26,244.58,26,254.19Z" transform="translate(-0.05 -0.9)"/><path class="cls-10" d="M70.65,278V211.39H82V278Z" transform="translate(-0.05 -0.9)"/><path class="cls-10" d="M94.31,243.23c0-4,0-8.13-.09-12.06h10.84c.16,1.23.4,4.12.44,6.12,2.29-3.72,6.16-7.21,13.2-7.21,6.69,0,10.68,3.44,12.37,7.54,2.66-4,6.82-7.54,14.58-7.54,8,0,14.79,4.83,14.79,17.16V278H149.39V248.62c0-4.63-1.68-9.3-7.65-9.3-6.21,0-8.75,4.29-8.75,11.84V278H121.9V249c0-5.24-1.37-9.64-7.51-9.64s-8.89,4.19-8.89,12.51v26H94.31Z" transform="translate(-0.05 -0.9)"/><path class="cls-10" d="M227.36,278h-8.75a32.6,32.6,0,0,1-1-7c-3.24,4.62-9.14,8-18.79,8-18.22,0-28.23-13.79-28.23-31.71,0-18.9,10.77-33.12,30.32-33.12,15.66,0,25.08,8.72,26.69,19.63h-11.8c-1.58-5.18-5.5-10.23-15.07-10.23-13.5,0-17.91,11.1-17.91,23.19,0,11.56,4.77,22.71,17.84,22.71,12.49,0,15.09-8.52,15.09-15.86v-.6H200.66v-9.78h26.7Z" transform="translate(-0.05 -0.9)"/><path class="cls-10" d="M277.11,266.5a94.53,94.53,0,0,0,.63,11.45H266.93a21.28,21.28,0,0,1-.69-5.1c-1.67,2.8-5,6.19-13.58,6.19-11.2,0-15.94-7.34-15.94-14.54,0-10.59,8.44-15.46,22.21-15.46h7.12V245.8c0-3.59-1.24-7.45-8.17-7.45-6.25,0-7.49,2.84-8.17,6.32H238.9c.68-7.69,5.43-14.66,19.39-14.59,12.16.06,18.82,4.88,18.82,15.84Zm-11-10.35H260c-8.32,0-11.92,2.44-11.92,7.65,0,3.89,2.5,7,7.53,7,9.25,0,10.44-6.35,10.44-13.31Z" transform="translate(-0.05 -0.9)"/><path class="cls-10" d="M289.6,243.23c0-4,0-8.13-.09-12.06h10.84c.15,1.23.4,4.12.43,6.12,2.3-3.72,6.17-7.21,13.21-7.21,6.69,0,10.67,3.44,12.36,7.54,2.66-4,6.83-7.54,14.58-7.54,8,0,14.8,4.83,14.8,17.16V278H344.67V248.62c0-4.63-1.67-9.3-7.65-9.3-6.21,0-8.74,4.29-8.74,11.84V278h-11.1V249c0-5.24-1.36-9.64-7.5-9.64s-8.9,4.19-8.9,12.51v26H289.6Z" transform="translate(-0.05 -0.9)"/><path class="cls-10" d="M368.62,215h25.31c13,0,21.82,7.29,21.82,19.09,0,13.19-9.83,19.54-22.21,19.54H380.46V278H368.62Zm11.84,29.1h11.82c7.09,0,11.5-3,11.5-9.77,0-6.89-4.88-9.8-11.2-9.8H380.46Z" transform="translate(-0.05 -0.9)"/><path class="cls-10" d="M465.68,254.47c0,13.92-8.21,24.57-22.86,24.57-14.13,0-22.48-10.36-22.48-24.35,0-14.23,8.46-24.61,23.06-24.61C456.91,230.08,465.68,239.8,465.68,254.47Zm-33.82.09c0,9.42,4.3,15.48,11.26,15.48s11-5.93,11-15.42c0-10-4-15.54-11.22-15.54C436,239.08,431.86,244.4,431.86,254.56Z" transform="translate(-0.05 -0.9)"/><path class="cls-10" d="M475.24,211.39h11.31v11.06H475.24Zm0,19.78h11.31V278H475.24Z" transform="translate(-0.05 -0.9)"/></svg>